<svg xmlns="http://www.w3.org/2000/svg" xmlns:xlink="http://www.w3.org/1999/xlink" xmlns:lucid="lucid" width="828" height="355"><g transform="translate(-389 -240)" lucid:page-tab-id="0_0"><path d="M414.66 326.45a6 6 0 0 1 6-6H594a6 6 0 0 1 6 6v171.72a6 6 0 0 1-6 6H420.66a6 6 0 0 1-6-6z" stroke="#aaa" fill-opacity="0"/><use xlink:href="#a" transform="matrix(1,0,0,1,426.65810591569823,332.4507790416641) translate(2.7592592592592666 154.6435697777778)"/><use xlink:href="#b" transform="matrix(1,0,0,1,426.65810591569823,332.4507790416641) translate(77.94444444444446 154.6435697777778)"/><path d="M902.35 306.97a6 6 0 0 1 6-6h282.5a6 6 0 0 1 6 6V547.6a6 6 0 0 1-6 6h-282.5a6 6 0 0 1-6-6z" stroke="#aaa" fill-opacity="0"/><use xlink:href="#a" transform="matrix(1,0,0,1,914.3498698261371,312.96724055221244) translate(57.25925925925927 223.40145777777775)"/><use xlink:href="#b" transform="matrix(1,0,0,1,914.3498698261371,312.96724055221244) translate(132.44444444444446 223.40145777777775)"/><path d="M946.7 319.8h81.23c6.3 0 6.3 0 6.3 6.94V372c0 6.93 0 6.93-6.3 6.93H946.7c-6.3 0-6.3 0-6.3-6.94v-45.26c0-6.93 0-6.93 6.3-6.93z" fill="#aaa"/><path d="M946.7 325.6h81.74v45.8H946.7v-45.8z" fill="#fff"/><path d="M947.73 327.32h79.68v42.36h-79.67v-42.36z" fill="gray"/><path d="M936.27 392.55h103.1v9.83h-103.1v-9.83z" fill="#aaa"/><path d="M964.45 381.07h71.32l3.6 11.65h-71.3l-3.62-11.65z" fill="#aaa"/><path d="M1010.28 381.07h-70.4l-3.6 11.56h70.4l3.6-11.56z" fill="#aaa"/><path d="M969.92 383.3h61.72l2.48 7.76H972.4l-2.48-7.76z" fill="#fff"/><path d="M995.3 383.3h-51.8l-2.07 7.76h51.82l2.06-7.76z" fill="#fff"/><use xlink:href="#c" transform="matrix(1,0,0,1,906.2746125111939,402.37686426870556) translate(61.69135802469136 23.77777777777778)"/><path d="M466.5 342.47h81.23c6.3 0 6.3 0 6.3 6.93v45.25c0 6.94 0 6.94-6.3 6.94H466.5c-6.3 0-6.3 0-6.3-6.95V349.4c0-6.93 0-6.93 6.3-6.93z" fill="#aaa"/><path d="M466.5 348.25h81.75v45.82H466.5v-45.82z" fill="#fff"/><path d="M467.53 349.98h79.68v42.36h-79.67v-42.36z" fill="gray"/><path d="M456.08 415.2h103.1v9.84h-103.1v-9.83z" fill="#aaa"/><path d="M484.25 403.74h71.32l3.6 11.64h-71.3l-3.62-11.64z" fill="#aaa"/><path d="M530.08 403.74h-70.4l-3.6 11.55h70.4l3.6-11.56z" fill="#aaa"/><path d="M489.72 405.96h61.72l2.48 7.77H492.2l-2.48-7.77z" fill="#fff"/><path d="M515.1 405.96h-51.8l-2.06 7.77h51.8l2.07-7.77z" fill="#fff"/><use xlink:href="#d" transform="matrix(1,0,0,1,426.07615970478366,425.0376810201957) translate(62.18827160493828 23.77777777777778)"/><path d="M702.53 300.97h102.64v175.95H702.53V300.97z" fill="#aaa"/><path d="M741.7 423.13h52.2c1.63 0 1.63 0 1.63 1.76 0 1.57 0 1.57-1.64 1.57h-52.2c-1.74 0-1.74 0-1.74-1.58 0-1.77 0-1.77 1.74-1.77zM741.8 432.1h52c2.24 0 2.24 0 2.24 2.28v.53c0 2.3 0 2.3-2.25 2.3h-52c-2.36 0-2.36 0-2.36-2.3v-.52c0-2.28 0-2.28 2.36-2.28zM742 443.17h52.1c2.25 0 2.25 0 2.25 2.3v.5c0 2.3 0 2.3-2.25 2.3H742c-2.25 0-2.25 0-2.25-2.3v-.5c0-2.3 0-2.3 2.26-2.3zM789.48 386.4c0 4.57-3.7 8.26-8.4 8.26-4.72 0-8.52-3.7-8.52-8.27 0-4.57 3.8-8.27 8.5-8.27 4.73 0 8.42 3.7 8.42 8.26z" fill="#fff"/><path d="M786.1 386.4c0 2.8-2.26 5.1-5.13 5.1s-5.23-2.3-5.23-5.1c0-2.82 2.36-5.1 5.23-5.1 2.87 0 5.13 2.28 5.13 5.1z" fill="#bbb"/><use xlink:href="#e" transform="matrix(1,0,0,1,672.5303842494127,476.74539632572595) translate(46.462962962962976 22.88888888888889)"/><path d="M1100.12 359.63h70.07v120.12h-70.08V359.63z" fill="#aaa"/><path d="M1126.86 443.03h35.63c1.1 0 1.1 0 1.1 1.2 0 1.08 0 1.08-1.1 1.08h-35.64c-1.2 0-1.2 0-1.2-1.07 0-1.2 0-1.2 1.2-1.2zM1126.93 449.15h35.5c1.53 0 1.53 0 1.53 1.56v.37c0 1.56 0 1.56-1.54 1.56h-35.5c-1.6 0-1.6 0-1.6-1.56v-.36c0-1.55 0-1.55 1.6-1.55zM1127.07 456.7h35.56c1.54 0 1.54 0 1.54 1.57v.36c0 1.56 0 1.56-1.54 1.56h-35.56c-1.54 0-1.54 0-1.54-1.57v-.36c0-1.56 0-1.56 1.54-1.56zM1159.48 417.95c0 3.12-2.52 5.64-5.74 5.64s-5.8-2.53-5.8-5.65c0-3.12 2.58-5.64 5.8-5.64 3.22 0 5.74 2.53 5.74 5.65z" fill="#fff"/><path d="M1157.17 417.95c0 1.92-1.54 3.48-3.5 3.48s-3.57-1.56-3.57-3.48 1.6-3.48 3.57-3.48c1.96 0 3.5 1.56 3.5 3.48z" fill="#bbb"/><use xlink:href="#f" transform="matrix(1,0,0,1,1070.1227388744676,479.63350596376586) translate(15.827160493827172 23.77777777777778)"/><use xlink:href="#g" transform="matrix(1,0,0,1,1070.1227388744676,479.63350596376586) translate(68.45679012345678 23.77777777777778)"/><path d="M821.55 388.55l1.5-.03 3.6-.22m5.1-.3l1.96-.13 7.1-.74 1.12-.17m5.04-.78l2.8-.54 3.1-.72 2.57-.7 1.44-.48m4.76-1.85l1.5-.7 1.8-.95 2.1-1.22 3.5-2.16m4.33-2.7l1.88-1.16 2.12-1.1 2.14-1 2.3-.98.7-.26m4.84-1.65l.12-.03 3.7-1.03 4.64-1.1 1.45-.26m5.02-.94l8.17-1.2 1.95-.2m5.08-.53l5.08-.5" stroke="#6db1ff" stroke-linejoin="round" fill="none"/><path d="M806.8 388.83l14.17-4.9.17 9.26zM938.8 361.2l-13.93 5.58-.63-9.25z" stroke="#6db1ff" fill="#6db1ff"/><path d="M686.15 388.35l-4.93-.3m-4.93-.5l-4.26-.44-5.57-.8m-4.87-.86l-4.08-.77-5.6-1.32m-4.78-1.28l-4.25-1.2-5.23-1.66m-4.72-1.5l-9.43-3m-4.72-1.5l-9.43-3.02m-4.74-1.4l-5.6-1.3-4.07-.8m-4.88-.84l-5.57-.82-4.24-.44m-4.92-.5l-4.94-.3" stroke="#6db1ff" stroke-linejoin="round" fill="none"/><path d="M700.9 388.8l-14.4 4.2.3-9.27zM555.64 363.32l14.4-4.18-.28 9.26z" stroke="#6db1ff" fill="#6db1ff"/><path d="M1101.65 479.63V377.9h16.64v101.73z" fill="none"/><use xlink:href="#h" transform="matrix(6.123233995736766e-17,-1,1,6.123233995736766e-17,1101.646238934743,479.63350596376586) translate(7.558641975308674 10.722222222222221)"/><path d="M455.37 351.32H557.1v16.64H455.36z" fill="none"/><use xlink:href="#i" transform="matrix(1,0,0,1,455.36599030360554,351.3155530111825) translate(16.24691358024694 10.277777777777777)"/><path d="M1050.57 362.02l2.04.22 4.38.83 3 .8 2.2.8 1.66.72 1.3.7 1.03.65.85.63.7.62.6.6.5.6.42.6.37.6.33.62.26.64.22.68.17.72.13.77.07.85.02.96-.07 1.1-.18 1.3-.35 1.58-.62 2.1-1.2 3.1-7.7 16.78-.58 1.97-.32 1.5-.17 1.18-.06 1v.88l.08.78.12.7.16.65.2.6.24.58.28.55.32.53.38.54.44.52.5.53.62.53.73.55.9.56 1.1.6 1.4.62 1.85.65 2.52.7 3.6.68 5.53.6 3.2.12" stroke="#6db1ff" stroke-linejoin="round" fill="none"/><path d="M1035.84 361.18l14.5-3.82-.52 9.26zM1098.5 419.64l-14.24 4.7-.04-9.28z" stroke="#6db1ff" fill="#6db1ff"/><path d="M925.04 335.2l-8.72-3.9-74.36-35.4-16.24-6.4-13.76-4.77-12.15-3.65-11-2.8-10.13-2.13-9.42-1.57-8.85-1.1-8.37-.7-7.98-.3h-.36l-11.05.04-11.76.54-12.46 1.1-13.07 1.7-13.55 2.37-13.85 3-13.85 3.62-13.55 4.15-12.88 4.55-11.93 4.77-10.72 4.83-9.42 4.72-8.1 4.5-6.84 4.17-5.75 3.85-4.78 3.48-3.96 3.17-3.28 2.86-.43.4" stroke="#6db1ff" stroke-linejoin="round" fill="none"/><path d="M938.88 340.28l-15-.57 3.2-8.7zM552.82 341.4l5.88-13.8 6.98 6.1z" stroke="#6db1ff" fill="#6db1ff"/><path d="M663.94 269.42a6 6 0 0 1 5.14-6.75l60-8.14a6 6 0 0 1 6.77 5.14l.65 4.83a6 6 0 0 1-5.14 6.75l-60.02 8.14a6 6 0 0 1-6.75-5.15z" fill="none"/><use xlink:href="#j" transform="matrix(0.9909254209840495,-0.1344128343856506,0.1344128343856506,0.9909254209840495,663.1302434558464,263.4742370162926) translate(1.5000000000000142 11.166666666666666)"/><use xlink:href="#k" transform="matrix(0.9909254209840495,-0.1344128343856506,0.1344128343856506,0.9909254209840495,663.1302434558464,263.4742370162926) translate(30.129629629629633 11.166666666666666)"/><use xlink:href="#l" transform="matrix(0.9909254209840495,-0.1344128343856506,0.1344128343856506,0.9909254209840495,663.1302434558464,263.4742370162926) translate(38.24074074074074 11.166666666666666)"/><path d="M845.6 377.4a5.74 5.74 0 0 1 2.95-7.55l49.2-21.52a5.74 5.74 0 0 1 7.55 2.96 5.74 5.74 0 0 1-2.96 7.55l-49.2 21.5a5.74 5.74 0 0 1-7.55-2.95z" fill="none"/><use xlink:href="#m" transform="matrix(0.9162162306364969,-0.40068418825585,0.40068418825585,0.9162162306364969,843.2963721360047,372.14394248342626) translate(11.203703703703713 10.666666666666664)"/><path d="M652.88 547.38h-74.82" stroke="#979ea8" fill="none"/><path d="M667.65 547.38L653.38 552v-9.26zM563.3 547.38l14.26-4.64V552z" stroke="#979ea8" fill="#979ea8"/><path d="M414.66 546.27a6 6 0 0 1 6-6H523.5a6 6 0 0 1 6 6v1.32a6 6 0 0 1-6 6H420.67a6 6 0 0 1-6-6z" fill="none"/><use xlink:href="#n" transform="matrix(1,0,0,1,414.6581059156983,540.2699194929692) translate(16.81481481481483 10.666666666666664)"/><use xlink:href="#o" transform="matrix(1,0,0,1,414.6581059156983,540.2699194929692) translate(48.62962962962963 10.666666666666664)"/><path d="M652.88 528.2h-5m-4.98 0h-9.97m-5 0h-9.97m-5 0H603m-5 0h-9.97m-5 0h-4.97" stroke="#979ea8" fill="none"/><path d="M667.65 528.2l-14.27 4.63v-9.27zM563.3 528.2l14.26-4.64v9.27z" stroke="#979ea8" fill="#979ea8"/><path d="M430.38 527.08a6 6 0 0 1 6-6h102.85a6 6 0 0 1 6 6v1.32a6 6 0 0 1-6 6H436.38a6 6 0 0 1-6-6z" fill="none"/><g><use xlink:href="#p" transform="matrix(1,0,0,1,430.37610376230697,521.08271930754) translate(0.18518518518520466 10.666666666666664)"/><use xlink:href="#o" transform="matrix(1,0,0,1,430.37610376230697,521.08271930754) translate(65.25925925925925 10.666666666666664)"/></g><g><path d="M608.22 354.1a5.74 5.74 0 0 1 7.25-3.64l50.97 16.88a5.74 5.74 0 0 1 3.64 7.25 5.74 5.74 0 0 1-7.25 3.63l-50.97-16.88a5.74 5.74 0 0 1-3.64-7.25z" fill="none"/></g><g><use xlink:href="#m" transform="matrix(0.9492769731961266,0.31444113623951986,-0.31444113623951986,0.9492769731961266,610.0248611775614,348.652947862801) translate(11.203703703703713 10.666666666666664)"/></g><defs><path fill="#aaa" d="M30-248c87 1 191-15 191 75 0 78-77 80-158 76V0H30v-248zm33 125c57 0 124 11 124-50 0-59-68-47-124-48v98" id="q"/><path fill="#aaa" d="M114-163C36-179 61-72 57 0H25l-1-190h30c1 12-1 29 2 39 6-27 23-49 58-41v29" id="r"/><path fill="#aaa" d="M24-231v-30h32v30H24zM24 0v-190h32V0H24" id="s"/><path fill="#aaa" d="M108 0H70L1-190h34L89-25l56-165h34" id="t"/><path fill="#aaa" d="M141-36C126-15 110 5 73 4 37 3 15-17 15-53c-1-64 63-63 125-63 3-35-9-54-41-54-24 1-41 7-42 31l-33-3c5-37 33-52 76-52 45 0 72 20 72 64v82c-1 20 7 32 28 27v20c-31 9-61-2-59-35zM48-53c0 20 12 33 32 33 41-3 63-29 60-74-43 2-92-5-92 41" id="u"/><path fill="#aaa" d="M59-47c-2 24 18 29 38 22v24C64 9 27 4 27-40v-127H5v-23h24l9-43h21v43h35v23H59v120" id="v"/><path fill="#aaa" d="M100-194c63 0 86 42 84 106H49c0 40 14 67 53 68 26 1 43-12 49-29l28 8c-11 28-37 45-77 45C44 4 14-33 15-96c1-61 26-98 85-98zm52 81c6-60-76-77-97-28-3 7-6 17-6 28h103" id="w"/><g id="a"><use transform="matrix(0.06172839506172839,0,0,0.06172839506172839,0,0)" xlink:href="#q"/><use transform="matrix(0.06172839506172839,0,0,0.06172839506172839,14.814814814814813,0)" xlink:href="#r"/><use transform="matrix(0.06172839506172839,0,0,0.06172839506172839,22.160493827160494,0)" xlink:href="#s"/><use transform="matrix(0.06172839506172839,0,0,0.06172839506172839,27.037037037037038,0)" xlink:href="#t"/><use transform="matrix(0.06172839506172839,0,0,0.06172839506172839,38.14814814814815,0)" xlink:href="#u"/><use transform="matrix(0.06172839506172839,0,0,0.06172839506172839,50.49382716049383,0)" xlink:href="#v"/><use transform="matrix(0.06172839506172839,0,0,0.06172839506172839,56.66666666666667,0)" xlink:href="#w"/></g><path fill="#aaa" d="M190 0L58-211 59 0H30v-248h39L202-35l-2-213h31V0h-41" id="x"/><path fill="#aaa" d="M206 0h-36l-40-164L89 0H53L-1-190h32L70-26l43-164h34l41 164 42-164h31" id="y"/><path fill="#aaa" d="M100-194c62-1 85 37 85 99 1 63-27 99-86 99S16-35 15-95c0-66 28-99 85-99zM99-20c44 1 53-31 53-75 0-43-8-75-51-75s-53 32-53 75 10 74 51 75" id="z"/><path fill="#aaa" d="M143 0L79-87 56-68V0H24v-261h32v163l83-92h37l-77 82L181 0h-38" id="A"/><g id="b"><use transform="matrix(0.06172839506172839,0,0,0.06172839506172839,0,0)" xlink:href="#x"/><use transform="matrix(0.06172839506172839,0,0,0.06172839506172839,15.987654320987653,0)" xlink:href="#w"/><use transform="matrix(0.06172839506172839,0,0,0.06172839506172839,28.333333333333332,0)" xlink:href="#v"/><use transform="matrix(0.06172839506172839,0,0,0.06172839506172839,34.50617283950617,0)" xlink:href="#y"/><use transform="matrix(0.06172839506172839,0,0,0.06172839506172839,50.49382716049382,0)" xlink:href="#z"/><use transform="matrix(0.06172839506172839,0,0,0.06172839506172839,62.8395061728395,0)" xlink:href="#r"/><use transform="matrix(0.06172839506172839,0,0,0.06172839506172839,70.18518518518518,0)" xlink:href="#A"/></g><path fill="#aaa" d="M205 0l-28-72H64L36 0H1l101-248h38L239 0h-34zm-38-99l-47-123c-12 45-31 82-46 123h93" id="B"/><path fill="#aaa" d="M177-190C167-65 218 103 67 71c-23-6-38-20-44-43l32-5c15 47 100 32 89-28v-30C133-14 115 1 83 1 29 1 15-40 15-95c0-56 16-97 71-98 29-1 48 16 59 35 1-10 0-23 2-32h30zM94-22c36 0 50-32 50-73 0-42-14-75-50-75-39 0-46 34-46 75s6 73 46 73" id="C"/><path fill="#aaa" d="M117-194c89-4 53 116 60 194h-32v-121c0-31-8-49-39-48C34-167 62-67 57 0H25l-1-190h30c1 10-1 24 2 32 11-22 29-35 61-36" id="D"/><g id="c"><use transform="matrix(0.04320987654320987,0,0,0.04320987654320987,0,0)" xlink:href="#B"/><use transform="matrix(0.04320987654320987,0,0,0.04320987654320987,10.370370370370368,0)" xlink:href="#C"/><use transform="matrix(0.04320987654320987,0,0,0.04320987654320987,19.01234567901234,0)" xlink:href="#w"/><use transform="matrix(0.04320987654320987,0,0,0.04320987654320987,27.654320987654316,0)" xlink:href="#D"/><use transform="matrix(0.04320987654320987,0,0,0.04320987654320987,36.29629629629629,0)" xlink:href="#v"/></g><path fill="#aaa" d="M212-179c-10-28-35-45-73-45-59 0-87 40-87 99 0 60 29 101 89 101 43 0 62-24 78-52l27 14C228-24 195 4 139 4 59 4 22-46 18-125c-6-104 99-153 187-111 19 9 31 26 39 46" id="E"/><path fill="#aaa" d="M24 0v-261h32V0H24" id="F"/><g id="d"><use transform="matrix(0.04320987654320987,0,0,0.04320987654320987,0,0)" xlink:href="#E"/><use transform="matrix(0.04320987654320987,0,0,0.04320987654320987,11.191358024691356,0)" xlink:href="#F"/><use transform="matrix(0.04320987654320987,0,0,0.04320987654320987,14.604938271604935,0)" xlink:href="#s"/><use transform="matrix(0.04320987654320987,0,0,0.04320987654320987,18.018518518518515,0)" xlink:href="#w"/><use transform="matrix(0.04320987654320987,0,0,0.04320987654320987,26.660493827160487,0)" xlink:href="#D"/><use transform="matrix(0.04320987654320987,0,0,0.04320987654320987,35.30246913580246,0)" xlink:href="#v"/></g><path fill="#aaa" d="M143 4C61 4 22-44 18-125c-5-107 100-154 193-111 17 8 29 25 37 43l-32 9c-13-25-37-40-76-40-61 0-88 39-88 99 0 61 29 100 91 101 35 0 62-11 79-27v-45h-74v-28h105v86C228-13 192 4 143 4" id="G"/><path fill="#aaa" d="M179-190L93 31C79 59 56 82 12 73V49c39 6 53-20 64-50L1-190h34L92-34l54-156h33" id="H"/><g id="e"><use transform="matrix(0.049382716049382706,0,0,0.049382716049382706,0,0)" xlink:href="#G"/><use transform="matrix(0.049382716049382706,0,0,0.049382716049382706,13.827160493827158,0)" xlink:href="#u"/><use transform="matrix(0.049382716049382706,0,0,0.049382716049382706,23.7037037037037,0)" xlink:href="#v"/><use transform="matrix(0.049382716049382706,0,0,0.049382716049382706,28.64197530864197,0)" xlink:href="#w"/><use transform="matrix(0.049382716049382706,0,0,0.049382716049382706,38.518518518518505,0)" xlink:href="#y"/><use transform="matrix(0.049382716049382706,0,0,0.049382716049382706,51.30864197530862,0)" xlink:href="#u"/><use transform="matrix(0.049382716049382706,0,0,0.049382716049382706,61.18518518518516,0)" xlink:href="#H"/></g><g id="f"><use transform="matrix(0.04320987654320987,0,0,0.04320987654320987,0,0)" xlink:href="#q"/><use transform="matrix(0.04320987654320987,0,0,0.04320987654320987,10.370370370370368,0)" xlink:href="#r"/><use transform="matrix(0.04320987654320987,0,0,0.04320987654320987,15.512345679012343,0)" xlink:href="#s"/><use transform="matrix(0.04320987654320987,0,0,0.04320987654320987,18.925925925925924,0)" xlink:href="#t"/><use transform="matrix(0.04320987654320987,0,0,0.04320987654320987,26.7037037037037,0)" xlink:href="#u"/><use transform="matrix(0.04320987654320987,0,0,0.04320987654320987,35.34567901234567,0)" xlink:href="#v"/><use transform="matrix(0.04320987654320987,0,0,0.04320987654320987,39.66666666666666,0)" xlink:href="#w"/></g><path fill="#aaa" d="M185-189c-5-48-123-54-124 2 14 75 158 14 163 119 3 78-121 87-175 55-17-10-28-26-33-46l33-7c5 56 141 63 141-1 0-78-155-14-162-118-5-82 145-84 179-34 5 7 8 16 11 25" id="I"/><g id="g"><use transform="matrix(0.04320987654320987,0,0,0.04320987654320987,0,0)" xlink:href="#I"/><use transform="matrix(0.04320987654320987,0,0,0.04320987654320987,10.370370370370368,0)" xlink:href="#w"/><use transform="matrix(0.04320987654320987,0,0,0.04320987654320987,19.01234567901234,0)" xlink:href="#r"/><use transform="matrix(0.04320987654320987,0,0,0.04320987654320987,24.154320987654316,0)" xlink:href="#t"/><use transform="matrix(0.04320987654320987,0,0,0.04320987654320987,31.93209876543209,0)" xlink:href="#w"/><use transform="matrix(0.04320987654320987,0,0,0.04320987654320987,40.57407407407406,0)" xlink:href="#r"/></g><path fill="#4087de" d="M106-169C34-169 62-67 57 0H25v-261h32l-1 103c12-21 28-36 61-36 89 0 53 116 60 194h-32v-121c2-32-8-49-39-48" id="J"/><path fill="#4087de" d="M59-47c-2 24 18 29 38 22v24C64 9 27 4 27-40v-127H5v-23h24l9-43h21v43h35v23H59v120" id="K"/><path fill="#4087de" d="M115-194c55 1 70 41 70 98S169 2 115 4C84 4 66-9 55-30l1 105H24l-1-265h31l2 30c10-21 28-34 59-34zm-8 174c40 0 45-34 45-75s-6-73-45-74c-42 0-51 32-51 76 0 43 10 73 51 73" id="L"/><path fill="#4087de" d="M33-154v-36h34v36H33zM33 0v-36h34V0H33" id="M"/><path fill="#4087de" d="M0 4l72-265h28L28 4H0" id="N"/><path fill="#4087de" d="M117-194c89-4 53 116 60 194h-32v-121c0-31-8-49-39-48C34-167 62-67 57 0H25l-1-190h30c1 10-1 24 2 32 11-22 29-35 61-36" id="O"/><path fill="#4087de" d="M141-36C126-15 110 5 73 4 37 3 15-17 15-53c-1-64 63-63 125-63 3-35-9-54-41-54-24 1-41 7-42 31l-33-3c5-37 33-52 76-52 45 0 72 20 72 64v82c-1 20 7 32 28 27v20c-31 9-61-2-59-35zM48-53c0 20 12 33 32 33 41-3 63-29 60-74-43 2-92-5-92 41" id="P"/><path fill="#4087de" d="M114-163C36-179 61-72 57 0H25l-1-190h30c1 12-1 29 2 39 6-27 23-49 58-41v29" id="Q"/><path fill="#4087de" d="M100-194c62-1 85 37 85 99 1 63-27 99-86 99S16-35 15-95c0-66 28-99 85-99zM99-20c44 1 53-31 53-75 0-43-8-75-51-75s-53 32-53 75 10 74 51 75" id="R"/><path fill="#4087de" d="M206 0h-36l-40-164L89 0H53L-1-190h32L70-26l43-164h34l41 164 42-164h31" id="S"/><path fill="#4087de" d="M33 0v-38h34V0H33" id="T"/><path fill="#4087de" d="M24 0v-261h32V0H24" id="U"/><path fill="#4087de" d="M96-169c-40 0-48 33-48 73s9 75 48 75c24 0 41-14 43-38l32 2c-6 37-31 61-74 61-59 0-76-41-82-99-10-93 101-131 147-64 4 7 5 14 7 22l-32 3c-4-21-16-35-41-35" id="V"/><g id="h"><use transform="matrix(0.030864197530864182,0,0,0.030864197530864182,0,0)" xlink:href="#J"/><use transform="matrix(0.030864197530864182,0,0,0.030864197530864182,6.172839506172837,0)" xlink:href="#K"/><use transform="matrix(0.030864197530864182,0,0,0.030864197530864182,9.259259259259256,0)" xlink:href="#K"/><use transform="matrix(0.030864197530864182,0,0,0.030864197530864182,12.345679012345673,0)" xlink:href="#L"/><use transform="matrix(0.030864197530864182,0,0,0.030864197530864182,18.518518518518512,0)" xlink:href="#M"/><use transform="matrix(0.030864197530864182,0,0,0.030864197530864182,21.60493827160493,0)" xlink:href="#N"/><use transform="matrix(0.030864197530864182,0,0,0.030864197530864182,24.691358024691347,0)" xlink:href="#N"/><use transform="matrix(0.030864197530864182,0,0,0.030864197530864182,27.777777777777764,0)" xlink:href="#O"/><use transform="matrix(0.030864197530864182,0,0,0.030864197530864182,33.9506172839506,0)" xlink:href="#P"/><use transform="matrix(0.030864197530864182,0,0,0.030864197530864182,40.123456790123434,0)" xlink:href="#Q"/><use transform="matrix(0.030864197530864182,0,0,0.030864197530864182,43.79629629629627,0)" xlink:href="#Q"/><use transform="matrix(0.030864197530864182,0,0,0.030864197530864182,47.469135802469104,0)" xlink:href="#R"/><use transform="matrix(0.030864197530864182,0,0,0.030864197530864182,53.64197530864194,0)" xlink:href="#S"/><use transform="matrix(0.030864197530864182,0,0,0.030864197530864182,61.018518518518476,0)" xlink:href="#T"/><use transform="matrix(0.030864197530864182,0,0,0.030864197530864182,64.1049382716049,0)" xlink:href="#U"/><use transform="matrix(0.030864197530864182,0,0,0.030864197530864182,66.54320987654316,0)" xlink:href="#R"/><use transform="matrix(0.030864197530864182,0,0,0.030864197530864182,72.716049382716,0)" xlink:href="#V"/><use transform="matrix(0.030864197530864182,0,0,0.030864197530864182,78.27160493827155,0)" xlink:href="#P"/><use transform="matrix(0.030864197530864182,0,0,0.030864197530864182,84.44444444444439,0)" xlink:href="#U"/></g><path fill="#6db1ff" d="M106-169C34-169 62-67 57 0H25v-261h32l-1 103c12-21 28-36 61-36 89 0 53 116 60 194h-32v-121c2-32-8-49-39-48" id="W"/><path fill="#6db1ff" d="M59-47c-2 24 18 29 38 22v24C64 9 27 4 27-40v-127H5v-23h24l9-43h21v43h35v23H59v120" id="X"/><path fill="#6db1ff" d="M115-194c55 1 70 41 70 98S169 2 115 4C84 4 66-9 55-30l1 105H24l-1-265h31l2 30c10-21 28-34 59-34zm-8 174c40 0 45-34 45-75s-6-73-45-74c-42 0-51 32-51 76 0 43 10 73 51 73" id="Y"/><path fill="#6db1ff" d="M33-154v-36h34v36H33zM33 0v-36h34V0H33" id="Z"/><path fill="#6db1ff" d="M0 4l72-265h28L28 4H0" id="aa"/><path fill="#6db1ff" d="M117-194c89-4 53 116 60 194h-32v-121c0-31-8-49-39-48C34-167 62-67 57 0H25l-1-190h30c1 10-1 24 2 32 11-22 29-35 61-36" id="ab"/><path fill="#6db1ff" d="M141-36C126-15 110 5 73 4 37 3 15-17 15-53c-1-64 63-63 125-63 3-35-9-54-41-54-24 1-41 7-42 31l-33-3c5-37 33-52 76-52 45 0 72 20 72 64v82c-1 20 7 32 28 27v20c-31 9-61-2-59-35zM48-53c0 20 12 33 32 33 41-3 63-29 60-74-43 2-92-5-92 41" id="ac"/><path fill="#6db1ff" d="M114-163C36-179 61-72 57 0H25l-1-190h30c1 12-1 29 2 39 6-27 23-49 58-41v29" id="ad"/><path fill="#6db1ff" d="M100-194c62-1 85 37 85 99 1 63-27 99-86 99S16-35 15-95c0-66 28-99 85-99zM99-20c44 1 53-31 53-75 0-43-8-75-51-75s-53 32-53 75 10 74 51 75" id="ae"/><path fill="#6db1ff" d="M206 0h-36l-40-164L89 0H53L-1-190h32L70-26l43-164h34l41 164 42-164h31" id="af"/><path fill="#6db1ff" d="M33 0v-38h34V0H33" id="ag"/><path fill="#6db1ff" d="M24 0v-261h32V0H24" id="ah"/><path fill="#6db1ff" d="M96-169c-40 0-48 33-48 73s9 75 48 75c24 0 41-14 43-38l32 2c-6 37-31 61-74 61-59 0-76-41-82-99-10-93 101-131 147-64 4 7 5 14 7 22l-32 3c-4-21-16-35-41-35" id="ai"/><g id="i"><use transform="matrix(0.024691358024691343,0,0,0.024691358024691343,0,0)" xlink:href="#W"/><use transform="matrix(0.024691358024691343,0,0,0.024691358024691343,4.938271604938269,0)" xlink:href="#X"/><use transform="matrix(0.024691358024691343,0,0,0.024691358024691343,7.407407407407403,0)" xlink:href="#X"/><use transform="matrix(0.024691358024691343,0,0,0.024691358024691343,9.876543209876537,0)" xlink:href="#Y"/><use transform="matrix(0.024691358024691343,0,0,0.024691358024691343,14.814814814814806,0)" xlink:href="#Z"/><use transform="matrix(0.024691358024691343,0,0,0.024691358024691343,17.283950617283942,0)" xlink:href="#aa"/><use transform="matrix(0.024691358024691343,0,0,0.024691358024691343,19.753086419753075,0)" xlink:href="#aa"/><use transform="matrix(0.024691358024691343,0,0,0.024691358024691343,22.222222222222207,0)" xlink:href="#ab"/><use transform="matrix(0.024691358024691343,0,0,0.024691358024691343,27.160493827160476,0)" xlink:href="#ac"/><use transform="matrix(0.024691358024691343,0,0,0.024691358024691343,32.098765432098745,0)" xlink:href="#ad"/><use transform="matrix(0.024691358024691343,0,0,0.024691358024691343,35.03703703703702,0)" xlink:href="#ad"/><use transform="matrix(0.024691358024691343,0,0,0.024691358024691343,37.97530864197529,0)" xlink:href="#ae"/><use transform="matrix(0.024691358024691343,0,0,0.024691358024691343,42.913580246913554,0)" xlink:href="#af"/><use transform="matrix(0.024691358024691343,0,0,0.024691358024691343,48.81481481481478,0)" xlink:href="#ag"/><use transform="matrix(0.024691358024691343,0,0,0.024691358024691343,51.28395061728392,0)" xlink:href="#ah"/><use transform="matrix(0.024691358024691343,0,0,0.024691358024691343,53.23456790123453,0)" xlink:href="#ae"/><use transform="matrix(0.024691358024691343,0,0,0.024691358024691343,58.17283950617279,0)" xlink:href="#ai"/><use transform="matrix(0.024691358024691343,0,0,0.024691358024691343,62.617283950617235,0)" xlink:href="#ac"/><use transform="matrix(0.024691358024691343,0,0,0.024691358024691343,67.5555555555555,0)" xlink:href="#ah"/></g><path fill="#6db1ff" d="M30-248c87 1 191-15 191 75 0 78-77 80-158 76V0H30v-248zm33 125c57 0 124 11 124-50 0-59-68-47-124-48v98" id="aj"/><path fill="#6db1ff" d="M101-251c82-7 93 87 43 132L82-64C71-53 59-42 53-27h129V0H18c2-99 128-94 128-182 0-28-16-43-45-43s-46 15-49 41l-32-3c6-41 34-60 81-64" id="ak"/><g id="j"><use transform="matrix(0.03703703703703702,0,0,0.03703703703703702,0,0)" xlink:href="#aj"/><use transform="matrix(0.03703703703703702,0,0,0.03703703703703702,8.888888888888886,0)" xlink:href="#ak"/><use transform="matrix(0.03703703703703702,0,0,0.03703703703703702,16.29629629629629,0)" xlink:href="#aj"/></g><path fill="#6db1ff" d="M16-82v-28h88v28H16" id="al"/><use transform="matrix(0.03703703703703702,0,0,0.03703703703703702,0,0)" xlink:href="#al" id="k"/><path fill="#6db1ff" d="M140-251c81 0 123 46 123 126C263-53 228-8 163 1c7 30 30 48 69 40v23c-55 16-95-15-103-61C56-3 17-48 17-125c0-80 42-126 123-126zm0 227c63 0 89-41 89-101s-29-99-89-99c-61 0-89 39-89 99S79-25 140-24" id="am"/><path fill="#6db1ff" d="M232-93c-1 65-40 97-104 97C67 4 28-28 28-90v-158h33c8 89-33 224 67 224 102 0 64-133 71-224h33v155" id="an"/><path fill="#6db1ff" d="M33 0v-248h34V0H33" id="ao"/><path fill="#6db1ff" d="M212-179c-10-28-35-45-73-45-59 0-87 40-87 99 0 60 29 101 89 101 43 0 62-24 78-52l27 14C228-24 195 4 139 4 59 4 22-46 18-125c-6-104 99-153 187-111 19 9 31 26 39 46" id="ap"/><g id="l"><use transform="matrix(0.03703703703703702,0,0,0.03703703703703702,0,0)" xlink:href="#am"/><use transform="matrix(0.03703703703703702,0,0,0.03703703703703702,10.370370370370367,0)" xlink:href="#an"/><use transform="matrix(0.03703703703703702,0,0,0.03703703703703702,19.962962962962955,0)" xlink:href="#ao"/><use transform="matrix(0.03703703703703702,0,0,0.03703703703703702,23.666666666666657,0)" xlink:href="#ap"/></g><path fill="#6db1ff" d="M197 0v-115H63V0H30v-248h33v105h134v-105h34V0h-34" id="aq"/><path fill="#6db1ff" d="M127-220V0H93v-220H8v-28h204v28h-85" id="ar"/><path fill="#6db1ff" d="M185-189c-5-48-123-54-124 2 14 75 158 14 163 119 3 78-121 87-175 55-17-10-28-26-33-46l33-7c5 56 141 63 141-1 0-78-155-14-162-118-5-82 145-84 179-34 5 7 8 16 11 25" id="as"/><g id="m"><use transform="matrix(0.03703703703703702,0,0,0.03703703703703702,0,0)" xlink:href="#aq"/><use transform="matrix(0.03703703703703702,0,0,0.03703703703703702,9.592592592592588,0)" xlink:href="#ar"/><use transform="matrix(0.03703703703703702,0,0,0.03703703703703702,17.703703703703695,0)" xlink:href="#ar"/><use transform="matrix(0.03703703703703702,0,0,0.03703703703703702,25.814814814814802,0)" xlink:href="#aj"/><use transform="matrix(0.03703703703703702,0,0,0.03703703703703702,34.70370370370369,0)" xlink:href="#as"/></g><path fill="#aaa" d="M30-248c118-7 216 8 213 122C240-48 200 0 122 0H30v-248zM63-27c89 8 146-16 146-99s-60-101-146-95v194" id="at"/><g id="n"><use transform="matrix(0.03703703703703702,0,0,0.03703703703703702,0,0)" xlink:href="#at"/><use transform="matrix(0.03703703703703702,0,0,0.03703703703703702,9.592592592592588,0)" xlink:href="#u"/><use transform="matrix(0.03703703703703702,0,0,0.03703703703703702,16.999999999999993,0)" xlink:href="#v"/><use transform="matrix(0.03703703703703702,0,0,0.03703703703703702,20.703703703703695,0)" xlink:href="#u"/></g><path fill="#aaa" d="M106-169C34-169 62-67 57 0H25v-261h32l-1 103c12-21 28-36 61-36 89 0 53 116 60 194h-32v-121c2-32-8-49-39-48" id="au"/><g id="o"><use transform="matrix(0.03703703703703702,0,0,0.03703703703703702,0,0)" xlink:href="#E"/><use transform="matrix(0.03703703703703702,0,0,0.03703703703703702,9.592592592592588,0)" xlink:href="#au"/><use transform="matrix(0.03703703703703702,0,0,0.03703703703703702,16.999999999999993,0)" xlink:href="#u"/><use transform="matrix(0.03703703703703702,0,0,0.03703703703703702,24.407407407407398,0)" xlink:href="#D"/><use transform="matrix(0.03703703703703702,0,0,0.03703703703703702,31.814814814814802,0)" xlink:href="#D"/><use transform="matrix(0.03703703703703702,0,0,0.03703703703703702,39.22222222222221,0)" xlink:href="#w"/><use transform="matrix(0.03703703703703702,0,0,0.03703703703703702,46.62962962962961,0)" xlink:href="#F"/></g><path fill="#aaa" d="M210-169c-67 3-38 105-44 169h-31v-121c0-29-5-50-35-48C34-165 62-65 56 0H25l-1-190h30c1 10-1 24 2 32 10-44 99-50 107 0 11-21 27-35 58-36 85-2 47 119 55 194h-31v-121c0-29-5-49-35-48" id="av"/><path fill="#aaa" d="M85-194c31 0 48 13 60 33l-1-100h32l1 261h-30c-2-10 0-23-3-31C134-8 116 4 85 4 32 4 16-35 15-94c0-66 23-100 70-100zm9 24c-40 0-46 34-46 75 0 40 6 74 45 74 42 0 51-32 51-76 0-42-9-74-50-73" id="aw"/><g id="p"><use transform="matrix(0.03703703703703702,0,0,0.03703703703703702,0,0)" xlink:href="#E"/><use transform="matrix(0.03703703703703702,0,0,0.03703703703703702,9.592592592592588,0)" xlink:href="#z"/><use transform="matrix(0.03703703703703702,0,0,0.03703703703703702,16.999999999999993,0)" xlink:href="#av"/><use transform="matrix(0.03703703703703702,0,0,0.03703703703703702,28.074074074074062,0)" xlink:href="#av"/><use transform="matrix(0.03703703703703702,0,0,0.03703703703703702,39.14814814814813,0)" xlink:href="#u"/><use transform="matrix(0.03703703703703702,0,0,0.03703703703703702,46.555555555555536,0)" xlink:href="#D"/><use transform="matrix(0.03703703703703702,0,0,0.03703703703703702,53.96296296296294,0)" xlink:href="#aw"/></g></defs></g></svg>